<?xml version="1.0" encoding="UTF-8" standalone="no"?>
<!-- Created with Inkscape (http://www.inkscape.org/) -->

<svg
   width="314.7804mm"
   height="290.50061mm"
   viewBox="0 0 314.7804 290.50061"
   version="1.1"
   id="svg1"
   xml:space="preserve"
   inkscape:version="1.4.3 (0d15f75, 2025-12-25)"
   sodipodi:docname="plateaux_avec_11poteaux.svg"
   xmlns:inkscape="http://www.inkscape.org/namespaces/inkscape"
   xmlns:sodipodi="http://sodipodi.sourceforge.net/DTD/sodipodi-0.dtd"
   xmlns="http://www.w3.org/2000/svg"
   xmlns:svg="http://www.w3.org/2000/svg"><sodipodi:namedview
     id="namedview1"
     pagecolor="#ffffff"
     bordercolor="#000000"
     borderopacity="0.25"
     inkscape:showpageshadow="2"
     inkscape:pageopacity="0.0"
     inkscape:pagecheckerboard="0"
     inkscape:deskcolor="#d1d1d1"
     inkscape:document-units="mm"
     inkscape:zoom="0.27516104"
     inkscape:cx="625.0885"
     inkscape:cy="779.54351"
     inkscape:window-width="1428"
     inkscape:window-height="774"
     inkscape:window-x="0"
     inkscape:window-y="30"
     inkscape:window-maximized="0"
     inkscape:current-layer="layer1" /><defs
     id="defs1" /><g
     inkscape:label="Calque 1"
     inkscape:groupmode="layer"
     id="layer1"
     transform="translate(-6.8972821,-4.7992694)"><path
       d="m 31.427361,150.04957 0.698,14.2125 2.088,14.0756 3.458,13.8032 4.793,13.3978 6.084,12.8634 7.316,12.2052 8.476,11.4293 9.557,10.543 10.543,9.557 11.4293,8.476 12.205199,7.316 12.8634,6.084 13.39781,4.793 13.8032,3.458 14.0756,2.088 14.2125,0.698 14.2125,-0.698 14.0756,-2.088 13.8032,-3.458 13.3978,-4.793 12.8634,-6.084 12.2052,-7.316 11.4293,-8.476 10.543,-9.557 9.557,-10.543 8.476,-11.4293 7.316,-12.2052 6.084,-12.8634 4.793,-13.3978 3.458,-13.8032 2.088,-14.0756 0.698,-14.2125 -0.698,-14.2125 -2.088,-14.0756 -3.458,-13.8032 -4.793,-13.397799 -6.084,-12.8634 -7.316,-12.2052 -8.476,-11.4293 -9.557,-10.543 -10.543,-9.556997 -11.4293,-8.476 -12.2052,-7.316 -12.8634,-6.084 -13.3978,-4.793003 -13.8032,-3.4580003 -14.0756,-2.088 -14.2125,-0.698 -14.2125,0.698 -14.0756,2.088 -13.8032,3.4580003 -13.39781,4.793003 -12.8634,6.084 -12.205199,7.316 -11.4293,8.476 -10.543,9.556997 -9.557,10.543 -8.476,11.4293 -7.316,12.2052 -6.084,12.8634 -4.793,13.397799 -3.458,13.8032 -2.088,14.0756 z m 40.445,-27.2608 1.775,-6.0448 6.0448,1.7749 -1.775,6.0448 z m 0.085,54.8094 6.0444,-1.7749 1.7749,6.0448 -6.0453,1.7749 z m 31.251099,-107.008499 4.7612,-4.1256 4.1256,4.7612 -4.7612,4.1256 z m 0.2267,159.116299 4.1256,-4.7613 4.7612,4.1257 -4.1256,4.7612 z m 54.35581,-186.087396 6.2359,-0.897 0.8965,6.235997 -6.2358,0.897 z m 0.2969,212.904996 0.8966,-6.236 6.2359,0.896 -0.8966,6.236 z m 57.5854,-200.354399 2.6171,-5.7307 5.7307,2.6171 -2.6171,5.7307 z m 0.2729,187.636199 5.7307,-2.6171 2.6171,5.7307 -5.7307,2.6171 z m 44.2526,-151.515099 5.2999,-3.406 3.406,5.2999 -5.2999,3.406 z m 0.1622,115.266199 3.406,-5.2999 5.2999,3.4061 -3.406,5.2999 z m 17.7664,-54.5069 v -6.3 h 6.3 v 6.3 z"
       stroke="#000000"
       fill="#d3d3d3"
       stroke-width="0.5"
       id="path1"
       style="fill:#ff0000" /><path
       d="m 7.2275981,176.98347 h 5.9999999 v -45 H 7.2275981 Z m 1.9,-10 0.005,-0.1078 0.0158,-0.1068 0.0262,-0.1047 0.0364,-0.1017 0.0462,-0.0975 0.0555,-0.0926 0.0643,-0.0867 0.0725,-0.08 0.08,-0.0725 0.0867,-0.0643 0.0926,-0.0555 0.0976,-0.0462 0.10164,-0.0363 0.1047099,-0.0263 0.10678,-0.0158 0.10782,-0.005 0.10782,0.005 0.10678,0.0158 0.10471,0.0263 0.10164,0.0363 0.0976,0.0462 0.0926,0.0555 0.0867,0.0643 0.08,0.0725 0.0725,0.08 0.0643,0.0867 0.0555,0.0926 0.0462,0.0975 0.0364,0.1017 0.0262,0.1047 0.0158,0.1068 0.005,0.1078 -0.005,0.1078 -0.0158,0.1068 -0.0262,0.1047 -0.0364,0.1017 -0.0462,0.0975 -0.0555,0.0926 -0.0643,0.0867 -0.0725,0.08 -0.08,0.0725 -0.0867,0.0643 -0.0926,0.0555 -0.0976,0.0462 -0.10164,0.0363 -0.10471,0.0263 -0.10678,0.0158 -0.10782,0.005 -0.10782,-0.005 -0.10678,-0.0158 -0.1047099,-0.0263 -0.10164,-0.0363 -0.0976,-0.0462 -0.0926,-0.0555 -0.0867,-0.0643 -0.08,-0.0725 -0.0725,-0.08 -0.0643,-0.0867 -0.0555,-0.0926 -0.0462,-0.0975 -0.0364,-0.1017 -0.0262,-0.1047 -0.0158,-0.1068 z"
       stroke="#000000"
       fill="#d3d3d3"
       stroke-width="0.5"
       id="path1-9"
       style="fill:#008000" /><path
       d="m 11.726589,236.60007 h 6 v -45 h -6 z m 1.9,-10 0.005,-0.1078 0.0158,-0.1068 0.0262,-0.1047 0.0364,-0.1017 0.0462,-0.0975 0.0555,-0.0926 0.0643,-0.0867 0.0725,-0.08 0.08,-0.0725 0.0867,-0.0643 0.0926,-0.0555 0.0976,-0.0462 0.10164,-0.0363 0.10471,-0.0263 0.10678,-0.0158 0.10782,-0.005 0.10782,0.005 0.10678,0.0158 0.10471,0.0263 0.10164,0.0363 0.0976,0.0462 0.0926,0.0555 0.0867,0.0643 0.08,0.0725 0.0725,0.08 0.0643,0.0867 0.0555,0.0926 0.0462,0.0975 0.0364,0.1017 0.0262,0.1047 0.0158,0.1068 0.005,0.1078 -0.005,0.1078 -0.0158,0.1068 -0.0262,0.1047 -0.0364,0.1017 -0.0462,0.0975 -0.0555,0.0926 -0.0643,0.0867 -0.0725,0.08 -0.08,0.0725 -0.0867,0.0643 -0.0926,0.0555 -0.0976,0.0462 -0.10164,0.0363 -0.10471,0.0263 -0.10678,0.0158 -0.10782,0.005 -0.10782,-0.005 -0.10678,-0.0158 -0.10471,-0.0263 -0.10164,-0.0363 -0.0976,-0.0462 -0.0926,-0.0555 -0.0867,-0.0643 -0.08,-0.0725 -0.0725,-0.08 -0.0643,-0.0867 -0.0555,-0.0926 -0.0462,-0.0975 -0.0364,-0.1017 -0.0262,-0.1047 -0.0158,-0.1068 z"
       stroke="#000000"
       fill="#d3d3d3"
       stroke-width="0.5"
       id="path1-9-6"
       style="fill:#008000" /><path
       d="M 7.1472821,108.05109 H 13.147282 V 63.051095 H 7.1472821 Z m 1.9,-9.999995 0.005,-0.1078 0.0158,-0.1068 0.0262,-0.1047 0.0364,-0.1017 0.0462,-0.0975 0.0555,-0.0926 0.0643,-0.0867 0.0725,-0.08 0.08,-0.0725 0.0867,-0.0643 0.0926,-0.0555 0.0976,-0.0462 0.10164,-0.0363 0.10471,-0.0263 0.1067799,-0.0158 0.10782,-0.005 0.10782,0.005 0.10678,0.0158 0.10471,0.0263 0.10164,0.0363 0.0976,0.0462 0.0926,0.0555 0.0867,0.0643 0.08,0.0725 0.0725,0.08 0.0643,0.0867 0.0555,0.0926 0.0462,0.0975 0.0364,0.1017 0.0262,0.1047 0.0158,0.1068 0.005,0.1078 -0.005,0.1078 -0.0158,0.1068 -0.0262,0.1047 -0.0364,0.1017 -0.0462,0.0975 -0.0555,0.0926 -0.0643,0.0867 -0.0725,0.08 -0.08,0.0725 -0.0867,0.0643 -0.0926,0.0555 -0.0976,0.0462 -0.10164,0.0363 -0.10471,0.0263 -0.10678,0.0158 -0.10782,0.005 -0.10782,-0.005 -0.1067799,-0.0158 -0.10471,-0.0263 -0.10164,-0.0363 -0.0976,-0.0462 -0.0926,-0.0555 -0.0867,-0.0643 -0.08,-0.0725 -0.0725,-0.08 -0.0643,-0.0867 -0.0555,-0.0926 -0.0462,-0.0975 -0.0364,-0.1017 -0.0262,-0.1047 -0.0158,-0.1068 z"
       stroke="#000000"
       fill="#d3d3d3"
       stroke-width="0.5"
       id="path1-9-6-1"
       style="fill:#008000" /><path
       d="m 19.973912,108.05109 h 6 V 63.051095 h -6 z m 1.9,-9.999995 0.005,-0.1078 0.0158,-0.1068 0.0262,-0.1047 0.0364,-0.1017 0.0462,-0.0975 0.0555,-0.0926 0.0643,-0.0867 0.0725,-0.08 0.08,-0.0725 0.0867,-0.0643 0.0926,-0.0555 0.0976,-0.0462 0.10164,-0.0363 0.10471,-0.0263 0.10678,-0.0158 0.10782,-0.005 0.10782,0.005 0.10678,0.0158 0.10471,0.0263 0.10164,0.0363 0.0976,0.0462 0.0926,0.0555 0.0867,0.0643 0.08,0.0725 0.0725,0.08 0.0643,0.0867 0.0555,0.0926 0.0462,0.0975 0.0364,0.1017 0.0262,0.1047 0.0158,0.1068 0.005,0.1078 -0.005,0.1078 -0.0158,0.1068 -0.0262,0.1047 -0.0364,0.1017 -0.0462,0.0975 -0.0555,0.0926 -0.0643,0.0867 -0.0725,0.08 -0.08,0.0725 -0.0867,0.0643 -0.0926,0.0555 -0.0976,0.0462 -0.10164,0.0363 -0.10471,0.0263 -0.10678,0.0158 -0.10782,0.005 -0.10782,-0.005 -0.10678,-0.0158 -0.10471,-0.0263 -0.10164,-0.0363 -0.0976,-0.0462 -0.0926,-0.0555 -0.0867,-0.0643 -0.08,-0.0725 -0.0725,-0.08 -0.0643,-0.0867 -0.0555,-0.0926 -0.0462,-0.0975 -0.0364,-0.1017 -0.0262,-0.1047 -0.0158,-0.1068 z"
       stroke="#000000"
       fill="#d3d3d3"
       stroke-width="0.5"
       id="path1-9-99-3"
       style="fill:#008000" /><path
       d="M 7.6196283,54.336411 H 13.619628 V 9.3364114 H 7.6196283 Z m 1.9,-10 0.005,-0.1078 0.0158,-0.1068 0.0262,-0.1047 0.0364,-0.1017 0.0462,-0.0975 0.0555,-0.0926 0.0643,-0.0867 0.0725,-0.08 0.08,-0.0725 0.0867,-0.0643 0.0926,-0.0555 0.0976,-0.0462 0.10164,-0.0363 0.10471,-0.0263 0.10678,-0.0158 0.10782,-0.005 0.10782,0.005 0.10678,0.0158 0.10471,0.0263 0.10164,0.0363 0.0976,0.0462 0.0926,0.0555 0.0867,0.0643 0.08,0.0725 0.0725,0.08 0.0643,0.0867 0.0555,0.0926 0.0462,0.0975 0.0364,0.1017 0.0262,0.1047 0.0158,0.1068 0.005,0.1078 -0.005,0.1078 -0.0158,0.1068 -0.0262,0.1047 -0.0364,0.1017 -0.0462,0.0975 -0.0555,0.0926 -0.0643,0.0867 -0.0725,0.08 -0.08,0.0725 -0.0867,0.0643 -0.0926,0.0555 -0.0976,0.0462 -0.10164,0.0363 -0.10471,0.0263 -0.10678,0.0158 -0.10782,0.005 -0.10782,-0.005 -0.10678,-0.0158 -0.10471,-0.0263 -0.10164,-0.0363 -0.0976,-0.0462 -0.0926,-0.0555 -0.0867,-0.0643 -0.08,-0.0725 -0.0725,-0.08 -0.0643,-0.0867 -0.0555,-0.0926 -0.0462,-0.0975 -0.0364,-0.1017 -0.0262,-0.1047 -0.0158,-0.1068 z"
       stroke="#000000"
       fill="#d3d3d3"
       stroke-width="0.5"
       id="path1-9-46"
       style="fill:#008000" /><path
       d="m 20.446258,54.336411 h 6 V 9.3364114 h -6 z m 1.9,-10 0.005,-0.1078 0.0158,-0.1068 0.0262,-0.1047 0.0364,-0.1017 0.0462,-0.0975 0.0555,-0.0926 0.0643,-0.0867 0.0725,-0.08 0.08,-0.0725 0.0867,-0.0643 0.0926,-0.0555 0.0976,-0.0462 0.10164,-0.0363 0.10471,-0.0263 0.10678,-0.0158 0.10782,-0.005 0.10782,0.005 0.10678,0.0158 0.10471,0.0263 0.10164,0.0363 0.0976,0.0462 0.0926,0.0555 0.0867,0.0643 0.08,0.0725 0.0725,0.08 0.0643,0.0867 0.0555,0.0926 0.0462,0.0975 0.0364,0.1017 0.0262,0.1047 0.0158,0.1068 0.005,0.1078 -0.005,0.1078 -0.0158,0.1068 -0.0262,0.1047 -0.0364,0.1017 -0.0462,0.0975 -0.0555,0.0926 -0.0643,0.0867 -0.0725,0.08 -0.08,0.0725 -0.0867,0.0643 -0.0926,0.0555 -0.0976,0.0462 -0.10164,0.0363 -0.10471,0.0263 -0.10678,0.0158 -0.10782,0.005 -0.10782,-0.005 -0.10678,-0.0158 -0.10471,-0.0263 -0.10164,-0.0363 -0.0976,-0.0462 -0.0926,-0.0555 -0.0867,-0.0643 -0.08,-0.0725 -0.0725,-0.08 -0.0643,-0.0867 -0.0555,-0.0926 -0.0462,-0.0975 -0.0364,-0.1017 -0.0262,-0.1047 -0.0158,-0.1068 z"
       stroke="#000000"
       fill="#d3d3d3"
       stroke-width="0.5"
       id="path1-9-9-0"
       style="fill:#008000" /><path
       d="m 33.272898,54.336411 h 6 V 9.3364114 h -6 z m 1.9,-10 0.005,-0.1078 0.0158,-0.1068 0.0262,-0.1047 0.0364,-0.1017 0.0462,-0.0975 0.0555,-0.0926 0.0643,-0.0867 0.0725,-0.08 0.08,-0.0725 0.0867,-0.0643 0.0926,-0.0555 0.0976,-0.0462 0.10164,-0.0363 0.10471,-0.0263 0.10678,-0.0158 0.10782,-0.005 0.10782,0.005 0.10678,0.0158 0.10471,0.0263 0.10164,0.0363 0.0976,0.0462 0.0926,0.0555 0.0867,0.0643 0.08,0.0725 0.0725,0.08 0.0643,0.0867 0.0555,0.0926 0.0462,0.0975 0.0364,0.1017 0.0262,0.1047 0.0158,0.1068 0.005,0.1078 -0.005,0.1078 -0.0158,0.1068 -0.0262,0.1047 -0.0364,0.1017 -0.0462,0.0975 -0.0555,0.0926 -0.0643,0.0867 -0.0725,0.08 -0.08,0.0725 -0.0867,0.0643 -0.0926,0.0555 -0.0976,0.0462 -0.10164,0.0363 -0.10471,0.0263 -0.10678,0.0158 -0.10782,0.005 -0.10782,-0.005 -0.10678,-0.0158 -0.10471,-0.0263 -0.10164,-0.0363 -0.0976,-0.0462 -0.0926,-0.0555 -0.0867,-0.0643 -0.08,-0.0725 -0.0725,-0.08 -0.0643,-0.0867 -0.0555,-0.0926 -0.0462,-0.0975 -0.0364,-0.1017 -0.0262,-0.1047 -0.0158,-0.1068 z"
       stroke="#000000"
       fill="#d3d3d3"
       stroke-width="0.5"
       id="path1-9-6-3"
       style="fill:#008000" /><path
       d="m 46.099528,54.336411 h 6 V 9.3364114 h -6 z m 1.9,-10 0.005,-0.1078 0.0158,-0.1068 0.0262,-0.1047 0.0364,-0.1017 0.0462,-0.0975 0.0555,-0.0926 0.0643,-0.0867 0.0725,-0.08 0.08,-0.0725 0.0867,-0.0643 0.0926,-0.0555 0.0976,-0.0462 0.10164,-0.0363 0.10471,-0.0263 0.10678,-0.0158 0.10782,-0.005 0.10782,0.005 0.10678,0.0158 0.10471,0.0263 0.10164,0.0363 0.0976,0.0462 0.0926,0.0555 0.0867,0.0643 0.08,0.0725 0.0725,0.08 0.0643,0.0867 0.0555,0.0926 0.0462,0.0975 0.0364,0.1017 0.0262,0.1047 0.0158,0.1068 0.005,0.1078 -0.005,0.1078 -0.0158,0.1068 -0.0262,0.1047 -0.0364,0.1017 -0.0462,0.0975 -0.0555,0.0926 -0.0643,0.0867 -0.0725,0.08 -0.08,0.0725 -0.0867,0.0643 -0.0926,0.0555 -0.0976,0.0462 -0.10164,0.0363 -0.10471,0.0263 -0.10678,0.0158 -0.10782,0.005 -0.10782,-0.005 -0.10678,-0.0158 -0.10471,-0.0263 -0.10164,-0.0363 -0.0976,-0.0462 -0.0926,-0.0555 -0.0867,-0.0643 -0.08,-0.0725 -0.0725,-0.08 -0.0643,-0.0867 -0.0555,-0.0926 -0.0462,-0.0975 -0.0364,-0.1017 -0.0262,-0.1047 -0.0158,-0.1068 z"
       stroke="#000000"
       fill="#d3d3d3"
       stroke-width="0.5"
       id="path1-9-99-2"
       style="fill:#008000" /><path
       d="m 10.536814,290.7634 h 6 v -45 h -6 z m 1.9,-10 0.005,-0.1078 0.0158,-0.1068 0.0262,-0.1047 0.0364,-0.1017 0.0462,-0.0975 0.0555,-0.0926 0.0643,-0.0867 0.0725,-0.08 0.08,-0.0725 0.0867,-0.0643 0.0926,-0.0555 0.0976,-0.0462 0.10164,-0.0363 0.10471,-0.0263 0.10678,-0.0158 0.10782,-0.005 0.10782,0.005 0.10678,0.0158 0.10471,0.0263 0.10164,0.0363 0.0976,0.0462 0.0926,0.0555 0.0867,0.0643 0.08,0.0725 0.0725,0.08 0.0643,0.0867 0.0555,0.0926 0.0462,0.0975 0.0364,0.1017 0.0262,0.1047 0.0158,0.1068 0.005,0.1078 -0.005,0.1078 -0.0158,0.1068 -0.0262,0.1047 -0.0364,0.1017 -0.0462,0.0975 -0.0555,0.0926 -0.0643,0.0867 -0.0725,0.08 -0.08,0.0725 -0.0867,0.0643 -0.0926,0.0555 -0.0976,0.0462 -0.10164,0.0363 -0.10471,0.0263 -0.10678,0.0158 -0.10782,0.005 -0.10782,-0.005 -0.10678,-0.0158 -0.10471,-0.0263 -0.10164,-0.0363 -0.0976,-0.0462 -0.0926,-0.0555 -0.0867,-0.0643 -0.08,-0.0725 -0.0725,-0.08 -0.0643,-0.0867 -0.0555,-0.0926 -0.0462,-0.0975 -0.0364,-0.1017 -0.0262,-0.1047 -0.0158,-0.1068 z"
       stroke="#000000"
       fill="#d3d3d3"
       stroke-width="0.5"
       id="path1-9-3"
       style="fill:#008000" /><path
       d="m 23.363444,290.7634 h 6 v -45 h -6 z m 1.9,-10 0.005,-0.1078 0.0158,-0.1068 0.0262,-0.1047 0.0364,-0.1017 0.0462,-0.0975 0.0555,-0.0926 0.0643,-0.0867 0.0725,-0.08 0.08,-0.0725 0.0867,-0.0643 0.0926,-0.0555 0.0976,-0.0462 0.10164,-0.0363 0.10471,-0.0263 0.10678,-0.0158 0.10782,-0.005 0.10782,0.005 0.10678,0.0158 0.10471,0.0263 0.10164,0.0363 0.0976,0.0462 0.0926,0.0555 0.0867,0.0643 0.08,0.0725 0.0725,0.08 0.0643,0.0867 0.0555,0.0926 0.0462,0.0975 0.0364,0.1017 0.0262,0.1047 0.0158,0.1068 0.005,0.1078 -0.005,0.1078 -0.0158,0.1068 -0.0262,0.1047 -0.0364,0.1017 -0.0462,0.0975 -0.0555,0.0926 -0.0643,0.0867 -0.0725,0.08 -0.08,0.0725 -0.0867,0.0643 -0.0926,0.0555 -0.0976,0.0462 -0.10164,0.0363 -0.10471,0.0263 -0.10678,0.0158 -0.10782,0.005 -0.10782,-0.005 -0.10678,-0.0158 -0.10471,-0.0263 -0.10164,-0.0363 -0.0976,-0.0462 -0.0926,-0.0555 -0.0867,-0.0643 -0.08,-0.0725 -0.0725,-0.08 -0.0643,-0.0867 -0.0555,-0.0926 -0.0462,-0.0975 -0.0364,-0.1017 -0.0262,-0.1047 -0.0158,-0.1068 z"
       stroke="#000000"
       fill="#d3d3d3"
       stroke-width="0.5"
       id="path1-9-9-78"
       style="fill:#008000" /><path
       d="m 36.190084,290.7634 h 6 v -45 h -6 z m 1.9,-10 0.005,-0.1078 0.0158,-0.1068 0.0262,-0.1047 0.0364,-0.1017 0.0462,-0.0975 0.0555,-0.0926 0.0643,-0.0867 0.0725,-0.08 0.08,-0.0725 0.0867,-0.0643 0.0926,-0.0555 0.0976,-0.0462 0.10164,-0.0363 0.10471,-0.0263 0.10678,-0.0158 0.10782,-0.005 0.10782,0.005 0.10678,0.0158 0.10471,0.0263 0.10164,0.0363 0.0976,0.0462 0.0926,0.0555 0.0867,0.0643 0.08,0.0725 0.0725,0.08 0.0643,0.0867 0.0555,0.0926 0.0462,0.0975 0.0364,0.1017 0.0262,0.1047 0.0158,0.1068 0.005,0.1078 -0.005,0.1078 -0.0158,0.1068 -0.0262,0.1047 -0.0364,0.1017 -0.0462,0.0975 -0.0555,0.0926 -0.0643,0.0867 -0.0725,0.08 -0.08,0.0725 -0.0867,0.0643 -0.0926,0.0555 -0.0976,0.0462 -0.10164,0.0363 -0.10471,0.0263 -0.10678,0.0158 -0.10782,0.005 -0.10782,-0.005 -0.10678,-0.0158 -0.10471,-0.0263 -0.10164,-0.0363 -0.0976,-0.0462 -0.0926,-0.0555 -0.0867,-0.0643 -0.08,-0.0725 -0.0725,-0.08 -0.0643,-0.0867 -0.0555,-0.0926 -0.0462,-0.0975 -0.0364,-0.1017 -0.0262,-0.1047 -0.0158,-0.1068 z"
       stroke="#000000"
       fill="#d3d3d3"
       stroke-width="0.5"
       id="path1-9-6-8"
       style="fill:#008000" /><path
       d="m 49.016714,290.7634 h 6 v -45 h -6 z m 1.9,-10 0.005,-0.1078 0.0158,-0.1068 0.0262,-0.1047 0.0364,-0.1017 0.0462,-0.0975 0.0555,-0.0926 0.0643,-0.0867 0.0725,-0.08 0.08,-0.0725 0.0867,-0.0643 0.0926,-0.0555 0.0976,-0.0462 0.10164,-0.0363 0.10471,-0.0263 0.10678,-0.0158 0.10782,-0.005 0.10782,0.005 0.10678,0.0158 0.10471,0.0263 0.10164,0.0363 0.0976,0.0462 0.0926,0.0555 0.0867,0.0643 0.08,0.0725 0.0725,0.08 0.0643,0.0867 0.0555,0.0926 0.0462,0.0975 0.0364,0.1017 0.0262,0.1047 0.0158,0.1068 0.005,0.1078 -0.005,0.1078 -0.0158,0.1068 -0.0262,0.1047 -0.0364,0.1017 -0.0462,0.0975 -0.0555,0.0926 -0.0643,0.0867 -0.0725,0.08 -0.08,0.0725 -0.0867,0.0643 -0.0926,0.0555 -0.0976,0.0462 -0.10164,0.0363 -0.10471,0.0263 -0.10678,0.0158 -0.10782,0.005 -0.10782,-0.005 -0.10678,-0.0158 -0.10471,-0.0263 -0.10164,-0.0363 -0.0976,-0.0462 -0.0926,-0.0555 -0.0867,-0.0643 -0.08,-0.0725 -0.0725,-0.08 -0.0643,-0.0867 -0.0555,-0.0926 -0.0462,-0.0975 -0.0364,-0.1017 -0.0262,-0.1047 -0.0158,-0.1068 z"
       stroke="#000000"
       fill="#d3d3d3"
       stroke-width="0.5"
       id="path1-9-99-38"
       style="fill:#008000" /></g></svg>
