<?xml version="1.0" standalone="no"?>
<!DOCTYPE svg PUBLIC "-//W3C//DTD SVG 1.1//EN" "http://www.w3.org/Graphics/SVG/1.1/DTD/svg11.dtd">
<svg width="290mm" height="290mm" viewBox="-145 -145 290 290" xmlns="http://www.w3.org/2000/svg" version="1.1">
<title>OpenSCAD Model</title>
<path d="
M -145,-0 L -144.302,14.2125 L -142.214,28.2881 L -138.756,42.0913 L -133.963,55.4891 L -127.879,68.3525
 L -120.563,80.5577 L -112.087,91.987 L -102.53,102.53 L -91.987,112.087 L -80.5577,120.563 L -68.3525,127.879
 L -55.4891,133.963 L -42.0913,138.756 L -28.2881,142.214 L -14.2125,144.302 L 0,145 L 14.2125,144.302
 L 28.2881,142.214 L 42.0913,138.756 L 55.4891,133.963 L 68.3525,127.879 L 80.5577,120.563 L 91.987,112.087
 L 102.53,102.53 L 112.087,91.987 L 120.563,80.5577 L 127.879,68.3525 L 133.963,55.4891 L 138.756,42.0913
 L 142.214,28.2881 L 144.302,14.2125 L 145,-0 L 144.302,-14.2125 L 142.214,-28.2881 L 138.756,-42.0913
 L 133.963,-55.4891 L 127.879,-68.3525 L 120.563,-80.5577 L 112.087,-91.987 L 102.53,-102.53 L 91.987,-112.087
 L 80.5577,-120.563 L 68.3525,-127.879 L 55.4891,-133.963 L 42.0913,-138.756 L 28.2881,-142.214 L 14.2125,-144.302
 L 0,-145 L -14.2125,-144.302 L -28.2881,-142.214 L -42.0913,-138.756 L -55.4891,-133.963 L -68.3525,-127.879
 L -80.5577,-120.563 L -91.987,-112.087 L -102.53,-102.53 L -112.087,-91.987 L -120.563,-80.5577 L -127.879,-68.3525
 L -133.963,-55.4891 L -138.756,-42.0913 L -142.214,-28.2881 L -144.302,-14.2125 z
M -104.555,-27.2608 L -102.78,-33.3056 L -96.7352,-31.5307 L -98.5102,-25.4859 z
M -104.47,27.5486 L -98.4256,25.7737 L -96.6507,31.8185 L -102.696,33.5934 z
M -73.2189,-79.4599 L -68.4577,-83.5855 L -64.3321,-78.8243 L -69.0933,-74.6987 z
M -72.9922,79.6564 L -68.8666,74.8951 L -64.1054,79.0208 L -68.231,83.782 z
M -18.6364,-106.431 L -12.4005,-107.328 L -11.504,-101.092 L -17.7398,-100.195 z
M -18.3395,106.474 L -17.4429,100.238 L -11.207,101.134 L -12.1036,107.37 z
M 39.2459,-93.8804 L 41.863,-99.6111 L 47.5937,-96.994 L 44.9766,-91.2633 z
M 39.5188,93.7558 L 45.2495,91.1387 L 47.8666,96.8694 L 42.1359,99.4865 z
M 83.7714,-57.7593 L 89.0713,-61.1653 L 92.4773,-55.8654 L 87.1774,-52.4594 z
M 83.9336,57.5069 L 87.3396,52.207 L 92.6395,55.6131 L 89.2335,60.913 z
M 101.7,3 L 101.7,-3.3 L 108,-3.3 L 108,3 z
" stroke="black" fill="lightgray" stroke-width="0.5"/>
</svg>
