<?xml version="1.0" standalone="no"?>
<!DOCTYPE svg PUBLIC "-//W3C//DTD SVG 1.1//EN" "http://www.w3.org/Graphics/SVG/1.1/DTD/svg11.dtd">
<svg width="6mm" height="45mm" viewBox="0 0 6 45" xmlns="http://www.w3.org/2000/svg" version="1.1">
<title>OpenSCAD Model</title>
<path d="
M 0,45 L 6,45 L 6,-0 L 0,-0 z
M 1.9,35 L 1.9053,34.8922 L 1.92114,34.7854 L 1.94736,34.6807 L 1.98373,34.579 L 2.02989,34.4815
 L 2.08538,34.3889 L 2.14969,34.3022 L 2.22218,34.2222 L 2.30217,34.1497 L 2.38887,34.0854 L 2.48146,34.0299
 L 2.57905,33.9837 L 2.68069,33.9474 L 2.7854,33.9211 L 2.89218,33.9053 L 3,33.9 L 3.10782,33.9053
 L 3.2146,33.9211 L 3.31931,33.9474 L 3.42095,33.9837 L 3.51854,34.0299 L 3.61113,34.0854 L 3.69783,34.1497
 L 3.77782,34.2222 L 3.85031,34.3022 L 3.91462,34.3889 L 3.97011,34.4815 L 4.01627,34.579 L 4.05263,34.6807
 L 4.07886,34.7854 L 4.0947,34.8922 L 4.1,35 L 4.0947,35.1078 L 4.07886,35.2146 L 4.05263,35.3193
 L 4.01627,35.421 L 3.97011,35.5185 L 3.91462,35.6111 L 3.85031,35.6978 L 3.77782,35.7778 L 3.69783,35.8503
 L 3.61113,35.9146 L 3.51854,35.9701 L 3.42095,36.0163 L 3.31931,36.0526 L 3.2146,36.0789 L 3.10782,36.0947
 L 3,36.1 L 2.89218,36.0947 L 2.7854,36.0789 L 2.68069,36.0526 L 2.57905,36.0163 L 2.48146,35.9701
 L 2.38887,35.9146 L 2.30217,35.8503 L 2.22218,35.7778 L 2.14969,35.6978 L 2.08538,35.6111 L 2.02989,35.5185
 L 1.98373,35.421 L 1.94736,35.3193 L 1.92114,35.2146 L 1.9053,35.1078 z
" stroke="black" fill="lightgray" stroke-width="0.5"/>
</svg>
