<?xml version="1.0" encoding="UTF-8" standalone="no"?>
<!-- Created with Inkscape (http://www.inkscape.org/) -->

<svg
   width="600mm"
   height="300mm"
   viewBox="0 0 600 300"
   version="1.1"
   id="svg1"
   xml:space="preserve"
   inkscape:version="1.4.3 (0d15f75, 2025-12-25)"
   sodipodi:docname="plateaux_avec_12poteaux.svg"
   xmlns:inkscape="http://www.inkscape.org/namespaces/inkscape"
   xmlns:sodipodi="http://sodipodi.sourceforge.net/DTD/sodipodi-0.dtd"
   xmlns="http://www.w3.org/2000/svg"
   xmlns:svg="http://www.w3.org/2000/svg"><sodipodi:namedview
     id="namedview1"
     pagecolor="#ffffff"
     bordercolor="#000000"
     borderopacity="0.25"
     inkscape:showpageshadow="2"
     inkscape:pageopacity="0.0"
     inkscape:pagecheckerboard="0"
     inkscape:deskcolor="#d1d1d1"
     inkscape:document-units="mm"
     inkscape:zoom="0.26205012"
     inkscape:cx="1156.2674"
     inkscape:cy="776.569"
     inkscape:window-width="1428"
     inkscape:window-height="774"
     inkscape:window-x="0"
     inkscape:window-y="30"
     inkscape:window-maximized="0"
     inkscape:current-layer="layer1" /><defs
     id="defs1" /><g
     inkscape:label="Calque 1"
     inkscape:groupmode="layer"
     id="layer1"><path
       d="m 8.3499656,150.04957 0.698,14.2125 2.0880004,14.0756 3.458,13.8032 4.793,13.3978 6.084,12.8634 7.316,12.2052 8.476,11.4293 9.557,10.543 10.543,9.557 11.4293,8.476 12.2052,7.316 12.8634,6.084 13.397804,4.793 13.8032,3.458 14.0756,2.088 14.2125,0.698 14.2125,-0.698 14.0756,-2.088 13.8032,-3.458 13.3978,-4.793 12.8634,-6.084 12.2052,-7.316 11.4293,-8.476 10.543,-9.557 9.557,-10.543 8.476,-11.4293 7.316,-12.2052 6.084,-12.8634 4.793,-13.3978 3.458,-13.8032 2.088,-14.0756 0.698,-14.2125 -0.698,-14.2125 -2.088,-14.0756 -3.458,-13.8032 -4.793,-13.397799 -6.084,-12.8634 -7.316,-12.2052 -8.476,-11.4293 -9.557,-10.543 -10.543,-9.556997 -11.4293,-8.476 -12.2052,-7.316 -12.8634,-6.084 -13.3978,-4.793003 -13.8032,-3.4580003 -14.0756,-2.088 -14.2125,-0.698 -14.2125,0.698 -14.0756,2.088 -13.8032,3.4580003 -13.397804,4.793003 -12.8634,6.084 -12.2052,7.316 -11.4293,8.476 -10.543,9.556997 -9.557,10.543 -8.476,11.4293 -7.316,12.2052 -6.084,12.8634 -4.793,13.397799 -3.458,13.8032 -2.0880004,14.0756 z m 40.4450004,-27.2608 1.775,-6.0448 6.0448,1.7749 -1.775,6.0448 z m 0.085,54.8094 6.0444,-1.7749 1.7749,6.0448 -6.0453,1.7749 z m 31.2511,-107.008499 4.7612,-4.1256 4.1256,4.7612 -4.7612,4.1256 z m 0.2267,159.116299 4.1256,-4.7613 4.7612,4.1257 -4.1256,4.7612 z m 54.355804,-186.087396 6.2359,-0.897 0.8965,6.235997 -6.2358,0.897 z m 0.2969,212.904996 0.8966,-6.236 6.2359,0.896 -0.8966,6.236 z m 57.5854,-200.354399 2.6171,-5.7307 5.7307,2.6171 -2.6171,5.7307 z m 0.2729,187.636199 5.7307,-2.6171 2.6171,5.7307 -5.7307,2.6171 z m 44.2526,-151.515099 5.2999,-3.406 3.406,5.2999 -5.2999,3.406 z m 0.1622,115.266199 3.406,-5.2999 5.2999,3.4061 -3.406,5.2999 z m 17.7664,-54.5069 v -6.3 h 6.3 v 6.3 z"
       stroke="#000000"
       fill="#d3d3d3"
       stroke-width="0.5"
       id="path1"
       style="fill:#ff0000" /><path
       d="m 298.771,79.034547 h 6 V 9.0345466 h -6 z m 1.9,-10 0.005,-0.1078 0.0158,-0.1068 0.0262,-0.1047 0.0364,-0.1017 0.0462,-0.0975 0.0555,-0.0926 0.0643,-0.0867 0.0725,-0.08 0.08,-0.0725 0.0867,-0.0643 0.0926,-0.0555 0.0976,-0.0462 0.10164,-0.0363 0.10471,-0.0263 0.10678,-0.0158 0.10782,-0.005 0.10782,0.005 0.10678,0.0158 0.10471,0.0263 0.10164,0.0363 0.0976,0.0462 0.0926,0.0555 0.0867,0.0643 0.08,0.0725 0.0725,0.08 0.0643,0.0867 0.0555,0.0926 0.0462,0.0975 0.0364,0.1017 0.0262,0.1047 0.0158,0.1068 0.005,0.1078 -0.005,0.1078 -0.0158,0.1068 -0.0262,0.1047 -0.0364,0.1017 -0.0462,0.0975 -0.0555,0.0926 -0.0643,0.0867 -0.0725,0.08 -0.08,0.0725 -0.0867,0.0643 -0.0926,0.0555 -0.0976,0.0462 -0.10164,0.0363 -0.10471,0.0263 -0.10678,0.0158 -0.10782,0.005 -0.10782,-0.005 -0.10678,-0.0158 -0.10471,-0.0263 -0.10164,-0.0363 -0.0976,-0.0462 -0.0926,-0.0555 -0.0867,-0.0643 -0.08,-0.0725 -0.0725,-0.08 -0.0643,-0.0867 -0.0555,-0.0926 -0.0462,-0.0975 -0.0364,-0.1017 -0.0262,-0.1047 -0.0158,-0.1068 z"
       stroke="#000000"
       fill="#d3d3d3"
       stroke-width="0.5"
       id="path1-7"
       style="fill:#008000" /><path
       d="m 316.94916,79.034547 h 6 V 9.0345466 h -6 z m 1.9,-10 0.005,-0.1078 0.0158,-0.1068 0.0262,-0.1047 0.0364,-0.1017 0.0462,-0.0975 0.0555,-0.0926 0.0643,-0.0867 0.0725,-0.08 0.08,-0.0725 0.0867,-0.0643 0.0926,-0.0555 0.0976,-0.0462 0.10164,-0.0363 0.10471,-0.0263 0.10678,-0.0158 0.10782,-0.005 0.10782,0.005 0.10678,0.0158 0.10471,0.0263 0.10164,0.0363 0.0976,0.0462 0.0926,0.0555 0.0867,0.0643 0.08,0.0725 0.0725,0.08 0.0643,0.0867 0.0555,0.0926 0.0462,0.0975 0.0364,0.1017 0.0262,0.1047 0.0158,0.1068 0.005,0.1078 -0.005,0.1078 -0.0158,0.1068 -0.0262,0.1047 -0.0364,0.1017 -0.0462,0.0975 -0.0555,0.0926 -0.0643,0.0867 -0.0725,0.08 -0.08,0.0725 -0.0867,0.0643 -0.0926,0.0555 -0.0976,0.0462 -0.10164,0.0363 -0.10471,0.0263 -0.10678,0.0158 -0.10782,0.005 -0.10782,-0.005 -0.10678,-0.0158 -0.10471,-0.0263 -0.10164,-0.0363 -0.0976,-0.0462 -0.0926,-0.0555 -0.0867,-0.0643 -0.08,-0.0725 -0.0725,-0.08 -0.0643,-0.0867 -0.0555,-0.0926 -0.0462,-0.0975 -0.0364,-0.1017 -0.0262,-0.1047 -0.0158,-0.1068 z"
       stroke="#000000"
       fill="#d3d3d3"
       stroke-width="0.5"
       id="path1-7-0"
       style="fill:#008000" /><path
       d="m 335.12733,79.034547 h 6 V 9.0345466 h -6 z m 1.9,-10 0.005,-0.1078 0.0158,-0.106801 0.0262,-0.104699 0.0364,-0.1017 0.0462,-0.0975 0.0555,-0.0926 0.0643,-0.0867 0.0725,-0.08 0.08,-0.0725 0.0867,-0.0643 0.0926,-0.0555 0.0976,-0.0462 0.10164,-0.0363 0.10471,-0.0263 0.10678,-0.0158 0.10782,-0.005 0.10782,0.005 0.10678,0.0158 0.10471,0.0263 0.10164,0.0363 0.0976,0.0462 0.0926,0.0555 0.0867,0.0643 0.08,0.0725 0.0725,0.08 0.0643,0.0867 0.0555,0.0926 0.0462,0.0975 0.0364,0.1017 0.0262,0.104699 0.0158,0.106801 0.005,0.1078 -0.005,0.1078 -0.0158,0.1068 -0.0262,0.1047 -0.0364,0.101699 -0.0462,0.0975 -0.0555,0.0926 -0.0643,0.0867 -0.0725,0.08 -0.08,0.0725 -0.0867,0.0643 -0.0926,0.0555 -0.0976,0.0462 -0.10164,0.0363 -0.10471,0.0263 -0.10678,0.0158 -0.10782,0.005 -0.10782,-0.005 -0.10678,-0.0158 -0.10471,-0.0263 -0.10164,-0.0363 -0.0976,-0.0462 -0.0926,-0.0555 -0.0867,-0.0643 -0.08,-0.0725 -0.0725,-0.08 -0.0643,-0.0867 -0.0555,-0.0926 -0.0462,-0.0975 -0.0364,-0.101699 -0.0262,-0.1047 -0.0158,-0.1068 z"
       stroke="#000000"
       fill="#d3d3d3"
       stroke-width="0.5"
       id="path1-7-5"
       style="fill:#008000" /><path
       d="m 353.30549,79.034547 h 6 V 9.0345466 h -6 z m 1.9,-10 0.005,-0.1078 0.0158,-0.1068 0.0262,-0.1047 0.0364,-0.1017 0.0462,-0.0975 0.0555,-0.0926 0.0643,-0.0867 0.0725,-0.08 0.08,-0.0725 0.0867,-0.0643 0.0926,-0.0555 0.0976,-0.0462 0.10164,-0.0363 0.10471,-0.0263 0.10678,-0.0158 0.10782,-0.005 0.10782,0.005 0.10678,0.0158 0.10471,0.0263 0.10164,0.0363 0.0976,0.0462 0.0926,0.0555 0.0867,0.0643 0.08,0.0725 0.0725,0.08 0.0643,0.0867 0.0555,0.0926 0.0462,0.0975 0.0364,0.1017 0.0262,0.1047 0.0158,0.1068 0.005,0.1078 -0.005,0.1078 -0.0158,0.1068 -0.0262,0.1047 -0.0364,0.1017 -0.0462,0.0975 -0.0555,0.0926 -0.0643,0.0867 -0.0725,0.08 -0.08,0.0725 -0.0867,0.0643 -0.0926,0.0555 -0.0976,0.0462 -0.10164,0.0363 -0.10471,0.0263 -0.10678,0.0158 -0.10782,0.005 -0.10782,-0.005 -0.10678,-0.0158 -0.10471,-0.0263 -0.10164,-0.0363 -0.0976,-0.0462 -0.0926,-0.0555 -0.0867,-0.0643 -0.08,-0.0725 -0.0725,-0.08 -0.0643,-0.0867 -0.0555,-0.0926 -0.0462,-0.0975 -0.0364,-0.1017 -0.0262,-0.1047 -0.0158,-0.1068 z"
       stroke="#000000"
       fill="#d3d3d3"
       stroke-width="0.5"
       id="path1-7-2"
       style="fill:#008000" /><path
       d="m 371.48366,79.034548 h 6 V 9.0345466 h -6 z m 1.9,-10 0.005,-0.1078 0.0158,-0.1068 0.0262,-0.1047 0.0364,-0.1017 0.0462,-0.0975 0.0555,-0.0926 0.0643,-0.0867 0.0725,-0.08 0.08,-0.0725 0.0867,-0.0643 0.0926,-0.0555 0.0976,-0.0462 0.10164,-0.0363 0.10471,-0.0263 0.10678,-0.0158 0.10782,-0.005 0.10782,0.005 0.10678,0.0158 0.10471,0.0263 0.10164,0.0363 0.0976,0.0462 0.0926,0.0555 0.0867,0.0643 0.08,0.0725 0.0725,0.08 0.0643,0.0867 0.0555,0.0926 0.0462,0.0975 0.0364,0.1017 0.0262,0.1047 0.0158,0.1068 0.005,0.1078 -0.005,0.1078 -0.0158,0.1068 -0.0262,0.1047 -0.0364,0.1017 -0.0462,0.0975 -0.0555,0.0926 -0.0643,0.0867 -0.0725,0.08 -0.08,0.0725 -0.0867,0.0643 -0.0926,0.0555 -0.0976,0.0462 -0.10164,0.0363 -0.10471,0.0263 -0.10678,0.0158 -0.10782,0.005 -0.10782,-0.005 -0.10678,-0.0158 -0.10471,-0.0263 -0.10164,-0.0363 -0.0976,-0.0462 -0.0926,-0.0555 -0.0867,-0.0643 -0.08,-0.0725 -0.0725,-0.08 -0.0643,-0.0867 -0.0555,-0.0926 -0.0462,-0.0975 -0.0364,-0.1017 -0.0262,-0.1047 -0.0158,-0.1068 z"
       stroke="#000000"
       fill="#d3d3d3"
       stroke-width="0.5"
       id="path1-7-25"
       style="fill:#008000" /><path
       d="m 389.66182,79.034548 h 6 V 9.0345466 h -6 z m 1.9,-10 0.005,-0.1078 0.0158,-0.1068 0.0262,-0.1047 0.0364,-0.1017 0.0462,-0.0975 0.0555,-0.0926 0.0643,-0.0867 0.0725,-0.08 0.08,-0.0725 0.0867,-0.0643 0.0926,-0.0555 0.0976,-0.0462 0.10164,-0.0363 0.10471,-0.0263 0.10678,-0.0158 0.10782,-0.005 0.10782,0.005 0.10678,0.0158 0.10471,0.0263 0.10164,0.0363 0.0976,0.0462 0.0926,0.0555 0.0867,0.0643 0.08,0.0725 0.0725,0.08 0.0643,0.0867 0.0555,0.0926 0.0462,0.0975 0.0364,0.1017 0.0262,0.1047 0.0158,0.1068 0.005,0.1078 -0.005,0.1078 -0.0158,0.1068 -0.0262,0.1047 -0.0364,0.1017 -0.0462,0.0975 -0.0555,0.0926 -0.0643,0.0867 -0.0725,0.08 -0.08,0.0725 -0.0867,0.0643 -0.0926,0.0555 -0.0976,0.0462 -0.10164,0.0363 -0.10471,0.0263 -0.10678,0.0158 -0.10782,0.005 -0.10782,-0.005 -0.10678,-0.0158 -0.10471,-0.0263 -0.10164,-0.0363 -0.0976,-0.0462 -0.0926,-0.0555 -0.0867,-0.0643 -0.08,-0.0725 -0.0725,-0.08 -0.0643,-0.0867 -0.0555,-0.0926 -0.0462,-0.0975 -0.0364,-0.1017 -0.0262,-0.1047 -0.0158,-0.1068 z"
       stroke="#000000"
       fill="#d3d3d3"
       stroke-width="0.5"
       id="path1-7-3"
       style="fill:#008000" /><path
       d="m 310.94139,163.44092 h 6 V 93.440923 h -6 z m 1.9,-10 0.005,-0.1078 0.0158,-0.1068 0.0262,-0.1047 0.0364,-0.1017 0.0462,-0.0975 0.0555,-0.0926 0.0643,-0.0867 0.0725,-0.08 0.08,-0.0725 0.0867,-0.0643 0.0926,-0.0555 0.0976,-0.0462 0.10164,-0.0363 0.10471,-0.0263 0.10678,-0.0158 0.10782,-0.005 0.10782,0.005 0.10678,0.0158 0.10471,0.0263 0.10164,0.0363 0.0976,0.0462 0.0926,0.0555 0.0867,0.0643 0.08,0.0725 0.0725,0.08 0.0643,0.0867 0.0555,0.0926 0.0462,0.0975 0.0364,0.1017 0.0262,0.1047 0.0158,0.1068 0.005,0.1078 -0.005,0.1078 -0.0158,0.1068 -0.0262,0.1047 -0.0364,0.1017 -0.0462,0.0975 -0.0555,0.0926 -0.0643,0.0867 -0.0725,0.08 -0.08,0.0725 -0.0867,0.0643 -0.0926,0.0555 -0.0976,0.0462 -0.10164,0.0363 -0.10471,0.0263 -0.10678,0.0158 -0.10782,0.005 -0.10782,-0.005 -0.10678,-0.0158 -0.10471,-0.0263 -0.10164,-0.0363 -0.0976,-0.0462 -0.0926,-0.0555 -0.0867,-0.0643 -0.08,-0.0725 -0.0725,-0.08 -0.0643,-0.0867 -0.0555,-0.0926 -0.0462,-0.0975 -0.0364,-0.1017 -0.0262,-0.1047 -0.0158,-0.1068 z"
       stroke="#000000"
       fill="#d3d3d3"
       stroke-width="0.5"
       id="path1-7-1"
       style="fill:#008000" /><path
       d="m 329.40643,163.44092 h 6 V 93.440923 h -6 z m 1.9,-10 0.005,-0.1078 0.0158,-0.1068 0.0262,-0.1047 0.0364,-0.1017 0.0462,-0.0975 0.0555,-0.0926 0.0643,-0.0867 0.0725,-0.08 0.08,-0.0725 0.0867,-0.0643 0.0926,-0.0555 0.0976,-0.0462 0.10164,-0.0363 0.10471,-0.0263 0.10678,-0.0158 0.10782,-0.005 0.10782,0.005 0.10678,0.0158 0.10471,0.0263 0.10164,0.0363 0.0976,0.0462 0.0926,0.0555 0.0867,0.0643 0.08,0.0725 0.0725,0.08 0.0643,0.0867 0.0555,0.0926 0.0462,0.0975 0.0364,0.1017 0.0262,0.1047 0.0158,0.1068 0.005,0.1078 -0.005,0.1078 -0.0158,0.1068 -0.0262,0.1047 -0.0364,0.1017 -0.0462,0.0975 -0.0555,0.0926 -0.0643,0.0867 -0.0725,0.08 -0.08,0.0725 -0.0867,0.0643 -0.0926,0.0555 -0.0976,0.0462 -0.10164,0.0363 -0.10471,0.0263 -0.10678,0.0158 -0.10782,0.005 -0.10782,-0.005 -0.10678,-0.0158 -0.10471,-0.0263 -0.10164,-0.0363 -0.0976,-0.0462 -0.0926,-0.0555 -0.0867,-0.0643 -0.08,-0.0725 -0.0725,-0.08 -0.0643,-0.0867 -0.0555,-0.0926 -0.0462,-0.0975 -0.0364,-0.1017 -0.0262,-0.1047 -0.0158,-0.1068 z"
       stroke="#000000"
       fill="#d3d3d3"
       stroke-width="0.5"
       id="path1-7-0-8"
       style="fill:#008000" /><path
       d="m 347.87147,163.44092 h 6 V 93.440923 h -6 z m 1.9,-10 0.005,-0.1078 0.0158,-0.1068 0.0262,-0.1047 0.0364,-0.1017 0.0462,-0.0975 0.0555,-0.0926 0.0643,-0.0867 0.0725,-0.08 0.08,-0.0725 0.0867,-0.0643 0.0926,-0.0555 0.0976,-0.0462 0.10164,-0.0363 0.10471,-0.0263 0.10678,-0.0158 0.10782,-0.005 0.10782,0.005 0.10678,0.0158 0.10471,0.0263 0.10164,0.0363 0.0976,0.0462 0.0926,0.0555 0.0867,0.0643 0.08,0.0725 0.0725,0.08 0.0643,0.0867 0.0555,0.0926 0.0462,0.0975 0.0364,0.1017 0.0262,0.1047 0.0158,0.1068 0.005,0.1078 -0.005,0.1078 -0.0158,0.1068 -0.0262,0.1047 -0.0364,0.1017 -0.0462,0.0975 -0.0555,0.0926 -0.0643,0.0867 -0.0725,0.08 -0.08,0.0725 -0.0867,0.0643 -0.0926,0.0555 -0.0976,0.0462 -0.10164,0.0363 -0.10471,0.0263 -0.10678,0.0158 -0.10782,0.005 -0.10782,-0.005 -0.10678,-0.0158 -0.10471,-0.0263 -0.10164,-0.0363 -0.0976,-0.0462 -0.0926,-0.0555 -0.0867,-0.0643 -0.08,-0.0725 -0.0725,-0.08 -0.0643,-0.0867 -0.0555,-0.0926 -0.0462,-0.0975 -0.0364,-0.1017 -0.0262,-0.1047 -0.0158,-0.1068 z"
       stroke="#000000"
       fill="#d3d3d3"
       stroke-width="0.5"
       id="path1-7-5-7"
       style="fill:#008000" /><path
       d="m 366.33651,163.44093 h 6 V 93.440923 h -6 z m 1.9,-10 0.005,-0.1078 0.0158,-0.1068 0.0262,-0.1047 0.0364,-0.1017 0.0462,-0.0975 0.0555,-0.0926 0.0643,-0.0867 0.0725,-0.08 0.08,-0.0725 0.0867,-0.0643 0.0926,-0.0555 0.0976,-0.0462 0.10164,-0.0363 0.10471,-0.0263 0.10678,-0.0158 0.10782,-0.005 0.10782,0.005 0.10678,0.0158 0.10471,0.0263 0.10164,0.0363 0.0976,0.0462 0.0926,0.0555 0.0867,0.0643 0.08,0.0725 0.0725,0.08 0.0643,0.0867 0.0555,0.0926 0.0462,0.0975 0.0364,0.1017 0.0262,0.1047 0.0158,0.1068 0.005,0.1078 -0.005,0.1078 -0.0158,0.1068 -0.0262,0.1047 -0.0364,0.1017 -0.0462,0.0975 -0.0555,0.0926 -0.0643,0.0867 -0.0725,0.08 -0.08,0.0725 -0.0867,0.0643 -0.0926,0.0555 -0.0976,0.0462 -0.10164,0.0363 -0.10471,0.0263 -0.10678,0.0158 -0.10782,0.005 -0.10782,-0.005 -0.10678,-0.0158 -0.10471,-0.0263 -0.10164,-0.0363 -0.0976,-0.0462 -0.0926,-0.0555 -0.0867,-0.0643 -0.08,-0.0725 -0.0725,-0.08 -0.0643,-0.0867 -0.0555,-0.0926 -0.0462,-0.0975 -0.0364,-0.1017 -0.0262,-0.1047 -0.0158,-0.1068 z"
       stroke="#000000"
       fill="#d3d3d3"
       stroke-width="0.5"
       id="path1-7-2-1"
       style="fill:#008000" /><path
       d="m 384.80155,163.44092 h 6 V 93.440923 h -6 z m 1.9,-10 0.005,-0.1078 0.0158,-0.1068 0.0262,-0.1047 0.0364,-0.1017 0.0462,-0.0975 0.0555,-0.0926 0.0643,-0.0867 0.0725,-0.08 0.08,-0.0725 0.0867,-0.0643 0.0926,-0.0555 0.0976,-0.0462 0.10164,-0.0363 0.10471,-0.0263 0.10678,-0.0158 0.10782,-0.005 0.10782,0.005 0.10678,0.0158 0.10471,0.0263 0.10164,0.0363 0.0976,0.0462 0.0926,0.0555 0.0867,0.0643 0.08,0.0725 0.0725,0.08 0.0643,0.0867 0.0555,0.0926 0.0462,0.0975 0.0364,0.1017 0.0262,0.1047 0.0158,0.1068 0.005,0.1078 -0.005,0.1078 -0.0158,0.1068 -0.0262,0.1047 -0.0364,0.1017 -0.0462,0.0975 -0.0555,0.0926 -0.0643,0.0867 -0.0725,0.08 -0.08,0.0725 -0.0867,0.0643 -0.0926,0.0555 -0.0976,0.0462 -0.10164,0.0363 -0.10471,0.0263 -0.10678,0.0158 -0.10782,0.005 -0.10782,-0.005 -0.10678,-0.0158 -0.10471,-0.0263 -0.10164,-0.0363 -0.0976,-0.0462 -0.0926,-0.0555 -0.0867,-0.0643 -0.08,-0.0725 -0.0725,-0.08 -0.0643,-0.0867 -0.0555,-0.0926 -0.0462,-0.0975 -0.0364,-0.1017 -0.0262,-0.1047 -0.0158,-0.1068 z"
       stroke="#000000"
       fill="#d3d3d3"
       stroke-width="0.5"
       id="path1-7-25-5"
       style="fill:#008000" /></g></svg>
