<?xml version="1.0" standalone="no"?>
<!DOCTYPE svg PUBLIC "-//W3C//DTD SVG 1.1//EN" "http://www.w3.org/Graphics/SVG/1.1/DTD/svg11.dtd">
<svg width="6mm" height="70mm" viewBox="0 0 6 70" xmlns="http://www.w3.org/2000/svg" version="1.1">
<title>OpenSCAD Model</title>
<path d="
M 0,70 L 6,70 L 6,-0 L 0,-0 z
M 1.9,60 L 1.9053,59.8922 L 1.92114,59.7854 L 1.94736,59.6807 L 1.98373,59.579 L 2.02989,59.4815
 L 2.08538,59.3889 L 2.14969,59.3022 L 2.22218,59.2222 L 2.30217,59.1497 L 2.38887,59.0854 L 2.48146,59.0299
 L 2.57905,58.9837 L 2.68069,58.9474 L 2.7854,58.9211 L 2.89218,58.9053 L 3,58.9 L 3.10782,58.9053
 L 3.2146,58.9211 L 3.31931,58.9474 L 3.42095,58.9837 L 3.51854,59.0299 L 3.61113,59.0854 L 3.69783,59.1497
 L 3.77782,59.2222 L 3.85031,59.3022 L 3.91462,59.3889 L 3.97011,59.4815 L 4.01627,59.579 L 4.05263,59.6807
 L 4.07886,59.7854 L 4.0947,59.8922 L 4.1,60 L 4.0947,60.1078 L 4.07886,60.2146 L 4.05263,60.3193
 L 4.01627,60.421 L 3.97011,60.5185 L 3.91462,60.6111 L 3.85031,60.6978 L 3.77782,60.7778 L 3.69783,60.8503
 L 3.61113,60.9146 L 3.51854,60.9701 L 3.42095,61.0163 L 3.31931,61.0526 L 3.2146,61.0789 L 3.10782,61.0947
 L 3,61.1 L 2.89218,61.0947 L 2.7854,61.0789 L 2.68069,61.0526 L 2.57905,61.0163 L 2.48146,60.9701
 L 2.38887,60.9146 L 2.30217,60.8503 L 2.22218,60.7778 L 2.14969,60.6978 L 2.08538,60.6111 L 2.02989,60.5185
 L 1.98373,60.421 L 1.94736,60.3193 L 1.92114,60.2146 L 1.9053,60.1078 z
" stroke="black" fill="lightgray" stroke-width="0.5"/>
</svg>
